G04 Layer: TopSilkLayer*
G04 EasyEDA v6.2.46, 2019-11-14T14:20:35--8:00*
G04 6cc4c092965b432d8056714782698947,b8365342f910463186eac5fadccb516d,10*
G04 Gerber Generator version 0.2*
G04 Scale: 100 percent, Rotated: No, Reflected: No *
G04 Dimensions in inches *
G04 leading zeros omitted , absolute positions ,2 integer and 4 decimal *
%FSLAX24Y24*%
%MOIN*%
G90*
G70D02*

%ADD10C,0.010000*%
%ADD21C,0.008000*%
%ADD22C,0.007992*%
%ADD23C,0.007000*%
%ADD24C,0.007870*%
%ADD25C,0.011811*%
%ADD26C,0.006000*%

%LPD*%
G54D21*
G01X3450Y7350D02*
G01X4439Y7350D01*
G01X4439Y5350D01*
G01X3450Y5350D01*
G01X3450Y7350D01*
G01X12750Y9750D02*
G01X12750Y10500D01*
G01X11750Y10500D01*
G01X11750Y500D01*
G01X12750Y500D01*
G54D22*
G01X12750Y500D02*
G01X12750Y9750D01*
G54D21*
G01X11750Y9500D02*
G01X12750Y9500D01*
G54D10*
G01X4950Y14850D02*
G01X10450Y14850D01*
G01X10450Y3850D01*
G01X4950Y3850D01*
G01X4950Y14850D01*
G54D23*
G01X10250Y3700D02*
G01X11250Y3700D01*
G01X11250Y500D01*
G01X9250Y500D01*
G01X9250Y3700D01*
G01X10250Y3700D01*
G01X8150Y3700D02*
G01X9150Y3700D01*
G01X9150Y500D01*
G01X7150Y500D01*
G01X7150Y3700D01*
G01X8150Y3700D01*
G54D10*
G01X5309Y1703D02*
G01X5309Y2103D01*
G01X5112Y1906D02*
G01X5512Y1906D01*
G54D21*
G01X1350Y450D02*
G01X350Y450D01*
G01X350Y2450D01*
G01X1350Y2450D01*
G01X1350Y1700D01*
G54D22*
G01X1350Y450D02*
G01X1350Y1700D01*
G54D24*
G01X4604Y5003D02*
G01X4604Y396D01*
G01X1612Y396D01*
G01X1612Y5003D01*
G01X4604Y5003D01*
G54D26*
G01X4550Y15615D02*
G01X4550Y15186D01*
G01X4550Y15615D02*
G01X4734Y15615D01*
G01X4794Y15594D01*
G01X4815Y15575D01*
G01X4835Y15534D01*
G01X4835Y15492D01*
G01X4815Y15451D01*
G01X4794Y15430D01*
G01X4734Y15411D01*
G01X4550Y15411D02*
G01X4734Y15411D01*
G01X4794Y15390D01*
G01X4815Y15369D01*
G01X4835Y15328D01*
G01X4835Y15267D01*
G01X4815Y15226D01*
G01X4794Y15205D01*
G01X4734Y15186D01*
G01X4550Y15186D01*
G01X10764Y15615D02*
G01X10600Y15186D01*
G01X10764Y15615D02*
G01X10927Y15186D01*
G01X10660Y15328D02*
G01X10865Y15328D01*
G01X2450Y7515D02*
G01X2450Y7086D01*
G01X2450Y7515D02*
G01X2634Y7515D01*
G01X2694Y7494D01*
G01X2715Y7475D01*
G01X2735Y7434D01*
G01X2735Y7392D01*
G01X2715Y7351D01*
G01X2694Y7330D01*
G01X2634Y7311D01*
G01X2450Y7311D01*
G01X2593Y7311D02*
G01X2735Y7086D01*
G01X2871Y7515D02*
G01X3157Y7086D01*
G01X3157Y7515D02*
G01X2871Y7086D01*
G01X2643Y5995D02*
G01X2643Y5565D01*
G01X2500Y5995D02*
G01X2785Y5995D01*
G01X2921Y5995D02*
G01X3207Y5565D01*
G01X3207Y5995D02*
G01X2921Y5565D01*
G01X12850Y1233D02*
G01X13278Y1233D01*
G01X12850Y1233D02*
G01X13278Y1397D01*
G01X12850Y1560D02*
G01X13278Y1397D01*
G01X12850Y1560D02*
G01X13278Y1560D01*
G01X12850Y1818D02*
G01X12869Y1777D01*
G01X12910Y1736D01*
G01X12952Y1716D01*
G01X13013Y1695D01*
G01X13114Y1695D01*
G01X13177Y1716D01*
G01X13218Y1736D01*
G01X13259Y1777D01*
G01X13278Y1818D01*
G01X13278Y1900D01*
G01X13259Y1941D01*
G01X13218Y1982D01*
G01X13177Y2002D01*
G01X13114Y2023D01*
G01X13013Y2023D01*
G01X12952Y2002D01*
G01X12910Y1982D01*
G01X12869Y1941D01*
G01X12850Y1900D01*
G01X12850Y1818D01*
G01X12850Y2158D02*
G01X13278Y2158D01*
G01X12850Y2158D02*
G01X12850Y2301D01*
G01X12869Y2362D01*
G01X12910Y2403D01*
G01X12952Y2423D01*
G01X13013Y2444D01*
G01X13114Y2444D01*
G01X13177Y2423D01*
G01X13218Y2403D01*
G01X13259Y2362D01*
G01X13278Y2301D01*
G01X13278Y2158D01*
G01X12850Y2579D02*
G01X13156Y2579D01*
G01X13218Y2599D01*
G01X13259Y2640D01*
G01X13278Y2702D01*
G01X13278Y2743D01*
G01X13259Y2804D01*
G01X13218Y2845D01*
G01X13156Y2865D01*
G01X12850Y2865D01*
G01X12850Y3000D02*
G01X13278Y3000D01*
G01X13278Y3000D02*
G01X13278Y3246D01*
G01X12850Y3381D02*
G01X13278Y3381D01*
G01X12850Y3381D02*
G01X12850Y3647D01*
G01X13053Y3381D02*
G01X13053Y3544D01*
G01X13278Y3381D02*
G01X13278Y3647D01*
G01X13422Y3782D02*
G01X13422Y4150D01*
G01X12850Y4285D02*
G01X13278Y4285D01*
G01X12850Y4285D02*
G01X12850Y4469D01*
G01X12869Y4530D01*
G01X12889Y4551D01*
G01X12931Y4571D01*
G01X12993Y4571D01*
G01X13034Y4551D01*
G01X13053Y4530D01*
G01X13075Y4469D01*
G01X13075Y4285D01*
G01X12850Y4706D02*
G01X13278Y4706D01*
G01X12850Y4841D02*
G01X13278Y4841D01*
G01X12850Y4841D02*
G01X13278Y5128D01*
G01X12850Y5128D02*
G01X13278Y5128D01*
G01X12910Y5549D02*
G01X12869Y5508D01*
G01X12850Y5447D01*
G01X12850Y5365D01*
G01X12869Y5303D01*
G01X12910Y5263D01*
G01X12952Y5263D01*
G01X12993Y5283D01*
G01X13013Y5303D01*
G01X13034Y5344D01*
G01X13075Y5467D01*
G01X13094Y5508D01*
G01X13114Y5528D01*
G01X13156Y5549D01*
G01X13218Y5549D01*
G01X13259Y5508D01*
G01X13278Y5447D01*
G01X13278Y5365D01*
G01X13259Y5303D01*
G01X13218Y5263D01*
G01X5793Y15415D02*
G01X5793Y14986D01*
G01X5650Y15415D02*
G01X5935Y15415D01*
G01X6071Y15415D02*
G01X6071Y14986D01*
G01X6071Y15415D02*
G01X6255Y15415D01*
G01X6317Y15395D01*
G01X6336Y15375D01*
G01X6357Y15334D01*
G01X6357Y15293D01*
G01X6336Y15252D01*
G01X6317Y15231D01*
G01X6255Y15211D01*
G01X6071Y15211D01*
G01X6214Y15211D02*
G01X6357Y14986D01*
G01X6656Y15415D02*
G01X6493Y14986D01*
G01X6656Y15415D02*
G01X6819Y14986D01*
G01X6553Y15129D02*
G01X6759Y15129D01*
G01X6955Y15415D02*
G01X6955Y14986D01*
G01X6955Y15415D02*
G01X7240Y14986D01*
G01X7240Y15415D02*
G01X7240Y14986D01*
G01X7663Y15354D02*
G01X7622Y15395D01*
G01X7560Y15415D01*
G01X7478Y15415D01*
G01X7417Y15395D01*
G01X7376Y15354D01*
G01X7376Y15313D01*
G01X7397Y15272D01*
G01X7417Y15252D01*
G01X7457Y15231D01*
G01X7581Y15190D01*
G01X7622Y15170D01*
G01X7642Y15150D01*
G01X7663Y15109D01*
G01X7663Y15047D01*
G01X7622Y15006D01*
G01X7560Y14986D01*
G01X7478Y14986D01*
G01X7417Y15006D01*
G01X7376Y15047D01*
G01X7797Y15415D02*
G01X7797Y14986D01*
G01X7797Y14986D02*
G01X8043Y14986D01*
G01X8342Y15415D02*
G01X8177Y14986D01*
G01X8342Y15415D02*
G01X8505Y14986D01*
G01X8239Y15129D02*
G01X8443Y15129D01*
G01X8784Y15415D02*
G01X8784Y14986D01*
G01X8639Y15415D02*
G01X8927Y15415D01*
G01X9185Y15415D02*
G01X9143Y15395D01*
G01X9102Y15354D01*
G01X9081Y15313D01*
G01X9061Y15252D01*
G01X9061Y15150D01*
G01X9081Y15088D01*
G01X9102Y15047D01*
G01X9143Y15006D01*
G01X9185Y14986D01*
G01X9265Y14986D01*
G01X9306Y15006D01*
G01X9347Y15047D01*
G01X9368Y15088D01*
G01X9389Y15150D01*
G01X9389Y15252D01*
G01X9368Y15313D01*
G01X9347Y15354D01*
G01X9306Y15395D01*
G01X9265Y15415D01*
G01X9185Y15415D01*
G01X9523Y15415D02*
G01X9523Y14986D01*
G01X9523Y15415D02*
G01X9707Y15415D01*
G01X9769Y15395D01*
G01X9789Y15375D01*
G01X9810Y15334D01*
G01X9810Y15293D01*
G01X9789Y15252D01*
G01X9769Y15231D01*
G01X9707Y15211D01*
G01X9523Y15211D01*
G01X9667Y15211D02*
G01X9810Y14986D01*
G01X11006Y448D02*
G01X10985Y488D01*
G01X10944Y530D01*
G01X10905Y550D01*
G01X10822Y550D01*
G01X10781Y530D01*
G01X10740Y488D01*
G01X10719Y448D01*
G01X10700Y386D01*
G01X10700Y284D01*
G01X10719Y223D01*
G01X10740Y182D01*
G01X10781Y140D01*
G01X10822Y121D01*
G01X10905Y121D01*
G01X10944Y140D01*
G01X10985Y182D01*
G01X11006Y223D01*
G01X11161Y448D02*
G01X11161Y469D01*
G01X11182Y509D01*
G01X11202Y530D01*
G01X11243Y550D01*
G01X11326Y550D01*
G01X11367Y530D01*
G01X11386Y509D01*
G01X11407Y469D01*
G01X11407Y428D01*
G01X11386Y386D01*
G01X11346Y325D01*
G01X11142Y121D01*
G01X11427Y121D01*
G01X6556Y863D02*
G01X6535Y903D01*
G01X6494Y944D01*
G01X6455Y965D01*
G01X6372Y965D01*
G01X6331Y944D01*
G01X6290Y903D01*
G01X6269Y863D01*
G01X6250Y801D01*
G01X6250Y700D01*
G01X6269Y638D01*
G01X6290Y596D01*
G01X6331Y555D01*
G01X6372Y536D01*
G01X6455Y536D01*
G01X6494Y555D01*
G01X6535Y596D01*
G01X6556Y638D01*
G01X6732Y965D02*
G01X6957Y965D01*
G01X6835Y801D01*
G01X6896Y801D01*
G01X6936Y780D01*
G01X6957Y761D01*
G01X6977Y700D01*
G01X6977Y659D01*
G01X6957Y596D01*
G01X6917Y555D01*
G01X6855Y536D01*
G01X6793Y536D01*
G01X6732Y555D01*
G01X6711Y576D01*
G01X6692Y617D01*
G01X5306Y897D02*
G01X5285Y938D01*
G01X5244Y979D01*
G01X5204Y1000D01*
G01X5122Y1000D01*
G01X5081Y979D01*
G01X5040Y938D01*
G01X5019Y897D01*
G01X4999Y836D01*
G01X4999Y734D01*
G01X5019Y672D01*
G01X5040Y632D01*
G01X5081Y591D01*
G01X5122Y570D01*
G01X5204Y570D01*
G01X5244Y591D01*
G01X5285Y632D01*
G01X5306Y672D01*
G01X5441Y918D02*
G01X5482Y938D01*
G01X5543Y1000D01*
G01X5543Y570D01*
G01X544Y3315D02*
G01X340Y3315D01*
G01X319Y3130D01*
G01X340Y3151D01*
G01X402Y3171D01*
G01X464Y3171D01*
G01X525Y3151D01*
G01X565Y3111D01*
G01X585Y3050D01*
G01X585Y3009D01*
G01X565Y2946D01*
G01X525Y2905D01*
G01X464Y2886D01*
G01X402Y2886D01*
G01X340Y2905D01*
G01X319Y2926D01*
G01X300Y2967D01*
G01X721Y3315D02*
G01X885Y2886D01*
G01X1048Y3315D02*
G01X885Y2886D01*
G54D25*
G75*
G01X6884Y2300D02*
G03X6884Y2300I-984J0D01*
G01*

%LPD*%
G36*
G01X5926Y3283D02*
G01X5900Y3284D01*
G01X5846Y3282D01*
G01X5819Y3280D01*
G01X5765Y3274D01*
G01X5713Y3264D01*
G01X5686Y3258D01*
G01X5634Y3244D01*
G01X5609Y3235D01*
G01X5583Y3226D01*
G01X5558Y3217D01*
G01X5534Y3206D01*
G01X5509Y3195D01*
G01X5485Y3183D01*
G01X5462Y3170D01*
G01X5438Y3156D01*
G01X5415Y3142D01*
G01X5371Y3112D01*
G01X5349Y3096D01*
G01X5328Y3079D01*
G01X5308Y3062D01*
G01X5288Y3044D01*
G01X5268Y3025D01*
G01X5250Y3006D01*
G01X6550Y3006D01*
G01X6531Y3025D01*
G01X6511Y3044D01*
G01X6491Y3062D01*
G01X6471Y3079D01*
G01X6450Y3096D01*
G01X6428Y3112D01*
G01X6384Y3142D01*
G01X6361Y3156D01*
G01X6337Y3170D01*
G01X6314Y3183D01*
G01X6290Y3195D01*
G01X6265Y3206D01*
G01X6241Y3217D01*
G01X6216Y3226D01*
G01X6190Y3235D01*
G01X6165Y3244D01*
G01X6113Y3258D01*
G01X6086Y3264D01*
G01X6034Y3274D01*
G01X5980Y3280D01*
G01X5953Y3282D01*
G01X5926Y3283D01*
G37*
M00*
M02*
