;Layer: Drill PTH
;EasyEDA v6.2.46, 2019-11-14T14:20:35--8:00
;6cc4c092965b432d8056714782698947,b8365342f910463186eac5fadccb516d,10
;Gerber Generator version 0.2
M48
INCH,LZ,00.0000
;Holesize 1 = 0.031 INCH
T01C0.031
;Holesize 2 = 0.032 INCH
T02C0.032
;Holesize 3 = 0.035 INCH
T03C0.035
;Holesize 4 = 0.039 INCH
T04C0.039
;Holesize 5 = 0.040 INCH
T05C0.040
;Holesize 6 = 0.047 INCH
T06C0.047
;Holesize 7 = 0.051 INCH
T07C0.051
%
G05
G90
T01
X+002400Y+003700G85X+002400Y+003699
X+002400Y+002700G85X+002400Y+002699
X+002400Y+001700G85X+002400Y+001699
T02
X+005900Y+001906
X+005900Y+002693
T03
X+003950Y+005850
X+003950Y+006850
T04
X+012250Y+001000
X+012250Y+002000
X+012250Y+003000
X+012250Y+004000
X+012250Y+005000
X+012250Y+006000
X+012250Y+007000
X+012250Y+008000
X+012250Y+009000
X+012250Y+010000
T05
X+005200Y+013850
X+005200Y+012850
X+005200Y+011850
X+005200Y+010850
X+005200Y+009850
X+005200Y+008850
X+005200Y+007850
X+005200Y+006850
X+005200Y+005850
X+005200Y+004850
X+010200Y+013850
X+010200Y+012850
X+010200Y+011850
X+010200Y+010850
X+010200Y+009850
X+010200Y+008850
X+010200Y+007850
X+010200Y+006850
X+010200Y+005850
X+010200Y+004850
T06
X+010250Y+001100
X+010250Y+003100
X+008150Y+001100
X+008150Y+003100
T07
X+000850Y+001950
X+000850Y+000950
M30
