G04 Layer: TopSolderMaskLayer*
G04 EasyEDA v6.2.46, 2019-11-14T14:20:35--8:00*
G04 6cc4c092965b432d8056714782698947,b8365342f910463186eac5fadccb516d,10*
G04 Gerber Generator version 0.2*
G04 Scale: 100 percent, Rotated: No, Reflected: No *
G04 Dimensions in inches *
G04 leading zeros omitted , absolute positions ,2 integer and 4 decimal *
%FSLAX24Y24*%
%MOIN*%
G90*
G70D02*

%ADD28C,0.070000*%
%ADD29C,0.070992*%
%ADD31C,0.068000*%
%ADD32C,0.078866*%
%ADD33C,0.059181*%
%ADD35C,0.082803*%
%ADD36C,0.058710*%

%LPD*%
G36*
G01X3600Y5500D02*
G01X3600Y6200D01*
G01X4300Y6200D01*
G01X4300Y5500D01*
G01X3600Y5500D01*
G37*
G54D28*
G01X3950Y6850D03*
G54D29*
G01X12250Y1000D03*
G01X12250Y2000D03*
G01X12250Y3000D03*
G01X12250Y4000D03*
G01X12250Y5000D03*
G01X12250Y6000D03*
G01X12250Y7000D03*
G01X12250Y8000D03*
G01X12250Y9000D03*
G36*
G01X11894Y9644D02*
G01X11894Y10355D01*
G01X12605Y10355D01*
G01X12605Y9644D01*
G01X11894Y9644D01*
G37*
G54D31*
G01X5200Y13850D03*
G01X5200Y12850D03*
G01X5200Y11850D03*
G01X5200Y10850D03*
G01X5200Y9850D03*
G01X5200Y8850D03*
G01X5200Y7850D03*
G01X5200Y6850D03*
G01X5200Y5850D03*
G01X5200Y4850D03*
G01X10200Y13850D03*
G01X10200Y12850D03*
G01X10200Y11850D03*
G01X10200Y10850D03*
G01X10200Y9850D03*
G01X10200Y8850D03*
G01X10200Y7850D03*
G01X10200Y6850D03*
G01X10200Y5850D03*
G01X10200Y4850D03*
G54D32*
G01X10250Y1100D03*
G01X10250Y3100D03*
G01X8150Y1100D03*
G01X8150Y3100D03*
G54D33*
G01X5900Y1906D03*
G01X5900Y2693D03*
G36*
G01X435Y1536D02*
G01X435Y2363D01*
G01X1264Y2363D01*
G01X1264Y1536D01*
G01X435Y1536D01*
G37*
G54D35*
G01X850Y950D03*
G54D36*
G01X2400Y3700D03*
G01X2400Y2700D03*
G01X2400Y1700D03*
M00*
M02*
